<mxfile host="app.diagrams.net" modified="2024-02-11T15:15:15.651Z" agent="Mozilla/5.0 (Macintosh; Intel Mac OS X 10_15_7) AppleWebKit/537.36 (KHTML, like Gecko) Chrome/121.0.0.0 Safari/537.36" version="23.1.2" etag="b9ru3eKId2nL4CZGHbcO" type="github">
  <diagram name="PÃ¡gina-1" id="tavhRyokeVsG3tproitd">
    <mxGraphModel>
      <root>
        <mxCell id="0" />
        <mxCell id="1" parent="0" />
      </root>
    </mxGraphModel>
  </diagram>
</mxfile>
